# xmcd CD database generated by RipIT
#
# Track frame offsets:
# 150
# 9824
# 19933
# 50355
# 65349
# 89703
# 93276
# 107069
# 107554
# 134900
# 161447
# 169004
# 197280
# 207133
# 208607
# 232833
# 256067
# 259095
# 261749
# 279298
# 311022
# 314538
#
# Disc length: 4455 seconds
#
# Revision: 1
# Processed by: cddbd v1.5.2PL0 Copyright (c) Steve Scherf et al.
# Submitted via: RipIT 3.9.0 www.suwald.com/ripit/ripit.html on 2017-05-19 at 16:33
#
DISCID=2e116516
DTITLE=Sufjan Stevens - Illinoise
DYEAR=2005
DGENRE=
TTITLE0=Concerning The UFO Sighting Near Highland, Illinois
TTITLE1=The Black Hawk War, Or, How To Demolish An Entire Civilization And Still Feel Good About Yourself In The Morning, Or, We Apolog
TTITLE2=Come On! Feel The Illinoise!: Part I: The World's Columbian Exposition/Part Ii: Carl Sandburg Visits Me In A Dream
TTITLE3=John Wayne Gacy, Jr.
TTITLE4=Jacksonville
TTITLE5=A Short Reprise For Mary Todd, Who Went Insane, But For Very Good Reasons
TTITLE6=Decatur, Or, Round Of Applause For Your Stepmother!
TTITLE7=One Last 'whoo-Hoo!' For The Pullman
TTITLE8=Chicago
TTITLE9=Casimir Pulaski Day
TTITLE10=To The Workers Of The Rock River Valley Region, I Have An Idea Concerning Your Predicament
TTITLE11=The Man Of Metropolis Steals Our Hearts
TTITLE12=Prairie Fire That Wanders About
TTITLE13=A Conjunction Of Drones Simulating The Way In Which Sufjan Stevens Has An Existential Crisis In The Great Godfrey Maze
TTITLE14=The Predatory Wasp Of The Palisades Is Out To Get Us!
TTITLE15=They Are Night Zombies!! They Are Neighbors!! They Have Come Back From The Dead!! Ahhhh!
TTITLE16=Let's Hear That String Part Again, Because I Don't Think They Heard It All The Way Out In Bushnell
TTITLE17=In This Temple As In The Hearts Of Man For Whom He Saved The Earth
TTITLE18=The Seer's Tower
TTITLE19=The Tallest Man, The Broadest Shoulders: Part I: The Great Frontier/Part Ii: Come To Me Only With Playthings Now
TTITLE20=Riffs And Variations On A Single Note For Jelly Roll, Earl Hines, Louis Armstrong, Baby Dodds, And The King Of Swing, To Name A
TTITLE21=Out Of Egypt, Into The Great Laugh Of Mankind, And I Shake The Dirt From My Sandals As I Run
EXTD=
EXTT0=
EXTT1=
EXTT2=
EXTT3=
EXTT4=
EXTT5=
EXTT6=
EXTT7=
EXTT8=
EXTT9=
EXTT10=
EXTT11=
EXTT12=
EXTT13=
EXTT14=
EXTT15=
EXTT16=
EXTT17=
EXTT18=
EXTT19=
EXTT20=
EXTT21=
PLAYORDER=
